<?xml version="1.0" encoding="utf-8"?>
<!-- Generator: Adobe Illustrator 25.2.1, SVG Export Plug-In . SVG Version: 6.00 Build 0)  -->
<svg version="1.1" id="Layer_1" xmlns="http://www.w3.org/2000/svg" xmlns:xlink="http://www.w3.org/1999/xlink" x="0px" y="0px"
	 viewBox="0 0 284.6 61.3" style="enable-background:new 0 0 284.6 61.3;" xml:space="preserve">
<style type="text/css">
	.st0{fill:#FFFFFF;}
	.st1{fill-rule:evenodd;clip-rule:evenodd;fill:#FFFFFF;}
	.st2{fill:#FFC629;}
	.st3{fill:none;stroke:#FFFFFF;stroke-miterlimit:10;}
</style>
<path class="st0" d="M172.4,0.6l4.6,15.7l4.8-15.7h5.7l-7.3,21h-6l-2.2-6.2l-1.9-7l-1.9,7l-2.2,6.2h-6l-7.4-21h5.8l4.8,15.7
	l4.5-15.7H172.4z"/>
<path class="st0" d="M193.7,13c0.3,2.6,2.6,4.4,6.2,4.4c2,0,4-0.7,5.6-2l3.3,3.3c-2.2,2.3-5.8,3.4-9,3.4c-7.2,0-11.5-4.5-11.5-11.1
	c0-6.3,4.3-11,11.1-11c7,0,11.4,4.3,10.6,12.9L193.7,13z M205.1,8.7c-0.4-2.7-2.5-4.1-5.5-4.1c-2.8,0-5.1,1.4-5.9,4.1L205.1,8.7z"/>
<path class="st0" d="M213.1,0.5v21h5.2v-21H213.1z"/>
<path class="st0" d="M235.8,6.2c-1.4-1.3-3.3-2-5.2-1.9c-2.5,0-3.8,0.8-3.8,2.1s1.2,2.1,3.9,2.3c3.9,0.3,8.9,1.1,8.9,6.7
	c0,3.7-3,6.9-9,6.9c-3.3,0-6.6-0.5-9.7-3.7l2.6-3.7c1.5,1.6,4.9,2.9,7.2,2.9c2,0,3.8-1,3.8-2.5s-1.2-2-4.2-2.2
	c-3.9-0.3-8.6-1.7-8.6-6.5s5-6.5,8.8-6.5c3.3,0,5.7,0.6,8.1,2.8L235.8,6.2z"/>
<path class="st0" d="M255.7,6.2c-1.4-1.3-3.3-2-5.2-1.9c-2.5,0-3.8,0.8-3.8,2.1s1.2,2.1,3.9,2.3c3.9,0.3,8.9,1.1,8.9,6.7
	c0,3.7-3,6.9-9,6.9c-3.3,0-6.6-0.5-9.7-3.7l2.6-3.7c1.5,1.6,4.9,2.9,7.2,2.9c2,0,3.8-1,3.8-2.5s-1.2-2-4.2-2.2
	c-3.9-0.3-8.6-1.7-8.6-6.5s5-6.5,8.8-6.5c3.3,0,5.7,0.6,8.1,2.8L255.7,6.2z"/>
<path class="st0" d="M157.5,27.3l0.4,2.4c1.6-2.6,3.8-3,5.9-3c2,0,3.9,0.7,5.4,2l-2.3,4.5c-1-0.9-2.4-1.4-3.7-1.3
	c-2.7,0-5.2,1.4-5.2,5.3v11h-5.2V27.3H157.5z"/>
<path class="st0" d="M186.9,27.3h5v20.9H187l-0.3-3c-1.2,2.5-4.4,3.6-6.8,3.7c-6.2,0-10.8-3.8-10.8-11.1s4.8-11,10.9-10.9
	c2.7-0.1,5.2,1.2,6.7,3.4L186.9,27.3z M174.3,37.8c-0.2,3.3,2.3,6.2,5.6,6.4c0.2,0,0.4,0,0.6,0c8.1,0,8.1-12.7,0-12.7
	c-3.3-0.1-6.1,2.5-6.2,5.8C174.3,37.4,174.3,37.6,174.3,37.8z"/>
<path class="st0" d="M208.4,27.4v4.4h-5.8v9c0,2,1.1,3,2.7,3c0.9,0,1.7-0.2,2.5-0.6l1.4,4.4c-1.4,0.6-2.8,0.9-4.3,0.9
	c-4.5,0.2-7.5-2.4-7.5-7.6v-9h-3.9v-4.5h3.9v-2.1h5.1v2.1H208.4z"/>
<path class="st0" d="M211.4,27.2v21h5.2v-21H211.4z"/>
<path class="st0" d="M235.7,48.2V37.3c0-3.2-1.7-5.6-5-5.6s-5.3,2.7-5.3,5.9v10.7h-5.2v-21h4.6l0.3,2.9c1.8-2,4.2-3.1,6.9-3.1
	c4.9,0,8.9,3.7,8.9,10.3v11L235.7,48.2z"/>
<path class="st0" d="M260.9,25.2l3.8,2.9l-2.3,3c1.5,1.7,2.3,3.9,2.2,6.2c0,2.6-1,6.2-4.4,7.8c2.8,1.1,4.5,3.9,4.3,6.9
	c0,5.8-4.4,9.3-10.5,9.3s-10.6-3.7-10.6-9.3h5.1c0,2.7,2.5,4.5,5.5,4.5s5.3-1.6,5.3-4.5s-2.7-4.2-5.3-4.2c-6.5,0-10.6-4-10.6-10.5
	c-0.2-5.6,4.1-10.4,9.8-10.6c0.3,0,0.6,0,0.8,0c1.7-0.1,3.4,0.3,4.8,1.2L260.9,25.2z M248.6,37.2c0,3.6,2.5,5.8,5.5,5.8
	c3,0,5.4-2.2,5.4-5.8s-2.5-5.9-5.4-5.9S248.6,33.6,248.6,37.2L248.6,37.2z"/>
<path class="st0" d="M280.7,32.9c-1.4-1.3-3.3-2-5.2-1.9c-2.5,0-3.8,0.8-3.8,2.1c0,1.3,1.2,2.1,3.9,2.3c3.9,0.3,9,1.2,9,6.7
	c0,3.7-3,6.9-9,6.9c-3.3,0-6.6-0.5-9.7-3.7l2.5-3.7c1.5,1.7,4.9,2.9,7.2,2.9c2,0,3.8-1,3.8-2.5s-1.2-2-4.2-2.2
	c-3.9-0.3-8.6-1.7-8.6-6.5s5-6.5,8.8-6.5c3.3,0,5.7,0.6,8.1,2.8L280.7,32.9z"/>
<polygon class="st1" points="0,0.2 29.6,61 35.6,39.3 16.5,0.2 "/>
<polygon class="st1" points="85.1,0.3 67.3,42.8 46.5,0.2 40.3,21.3 59.7,61 76.2,61 101.6,0.3 "/>
<path class="st2" d="M111.2,35c3.3-1.6,6.2-4,8.4-7c1.9-2.8,2.9-6.5,2.9-11c0.1-2.8-0.5-5.6-1.9-8.1c-1.3-2.1-3-4-5.1-5.3
	c-2.1-1.3-4.4-2.3-6.8-2.7c-2.9-0.4-5.8-0.6-8.7-0.6H85.1l-4.8,11.2H90h5.3c1.8,0,3.3,0,4.6,0.1c1.2,0.1,2.4,0.3,3.5,0.8
	c1.3,0.5,2.3,1.4,3,2.6c0.6,1.2,0.9,2.6,0.9,3.9c0.1,1.4-0.2,2.8-0.7,4.1c-0.5,1.1-1.3,2-2.2,2.8c-1.2,0.9-2.5,1.5-4,1.7
	c-2,0.3-3.9,0.4-5.9,0.4H90l6.8,10.9l6,9h17.9L111.2,35z"/>
<line class="st3" x1="137.6" y1="0.2" x2="137.6" y2="61"/>
</svg>
