<svg id="Layer_1" data-name="Layer 1" xmlns="http://www.w3.org/2000/svg" viewBox="0 0 284.58 61.3"><defs><style>.cls-1{fill:#bbb;}.cls-2{fill:#2b5597;fill-rule:evenodd;}.cls-3{fill:#ffc629;}.cls-4{fill:none;stroke:#54565a;stroke-miterlimit:10;}</style></defs><path class="cls-1" d="M172.63.63l4.58,15.73L182,.63h5.73l-7.3,21h-6l-2.16-6.19-1.87-7-1.86,7-2.16,6.19h-6L153,.63h5.77l4.79,15.73L168.09.63Z" transform="translate(-0.28 -0.04)"/><path class="cls-1" d="M194,13c.34,2.59,2.58,4.45,6.23,4.45a8.63,8.63,0,0,0,5.6-2l3.3,3.27c-2.2,2.29-5.81,3.39-9,3.39-7.2,0-11.49-4.45-11.49-11.15C188.61,4.62,192.94,0,199.72,0c7,0,11.37,4.32,10.56,12.93Zm11.36-4.28C205,6,202.86,4.62,199.89,4.62c-2.8,0-5.09,1.36-5.85,4.07Z" transform="translate(-0.28 -0.04)"/><path class="cls-1" d="M213.42.59v21h5.17V.59Z" transform="translate(-0.28 -0.04)"/><path class="cls-1" d="M236.06,6.23a7.06,7.06,0,0,0-5.17-1.87c-2.46,0-3.82.77-3.82,2.08s1.23,2.12,3.9,2.29c3.94.26,8.95,1.15,8.95,6.7,0,3.69-3,6.87-9,6.87-3.31,0-6.62-.55-9.67-3.73l2.55-3.69c1.48,1.65,4.87,2.88,7.2,2.92,2,.05,3.78-1,3.78-2.5s-1.19-2-4.16-2.2c-3.94-.3-8.65-1.74-8.65-6.49S227,.08,230.8.08c3.27,0,5.72.64,8.14,2.76Z" transform="translate(-0.28 -0.04)"/><path class="cls-1" d="M256,6.23a7.06,7.06,0,0,0-5.17-1.87c-2.46,0-3.82.77-3.82,2.08s1.23,2.12,3.9,2.29c3.94.26,8.95,1.15,8.95,6.7,0,3.69-3,6.87-9,6.87-3.31,0-6.62-.55-9.67-3.73l2.55-3.69c1.48,1.65,4.87,2.88,7.2,2.92,2,.05,3.78-1,3.78-2.5s-1.19-2-4.16-2.2c-3.94-.3-8.65-1.74-8.65-6.49s5-6.53,8.82-6.53c3.27,0,5.72.64,8.14,2.76Z" transform="translate(-0.28 -0.04)"/><path class="cls-1" d="M157.79,27.38l.38,2.41c1.61-2.58,3.78-3,5.9-3a7.89,7.89,0,0,1,5.38,2l-2.33,4.49A5.17,5.17,0,0,0,163.39,32c-2.72,0-5.22,1.44-5.22,5.3v11H153V27.38Z" transform="translate(-0.28 -0.04)"/><path class="cls-1" d="M187.13,27.38h5v20.9h-4.87L187,45.23c-1.19,2.46-4.45,3.64-6.78,3.68-6.19.05-10.77-3.77-10.77-11.1s4.79-11,10.89-10.94A7.67,7.67,0,0,1,187,30.26ZM174.58,37.81a6,6,0,0,0,6.19,6.36c8.14,0,8.14-12.68,0-12.68A6,6,0,0,0,174.58,37.81Z" transform="translate(-0.28 -0.04)"/><path class="cls-1" d="M208.63,27.42v4.45h-5.81v9c0,2,1.1,3,2.71,3a5.76,5.76,0,0,0,2.5-.64l1.44,4.41a11.35,11.35,0,0,1-4.28.89c-4.53.17-7.5-2.41-7.5-7.63v-9h-3.9V27.42h3.9V25.27h5.13v2.15Z" transform="translate(-0.28 -0.04)"/><path class="cls-1" d="M211.64,27.29v21h5.17v-21Z" transform="translate(-0.28 -0.04)"/><path class="cls-1" d="M236,48.28V37.34c0-3.18-1.73-5.6-5-5.6s-5.34,2.67-5.34,5.85V48.28H220.5v-21h4.62l.34,2.85A9.42,9.42,0,0,1,232.33,27c4.91,0,8.86,3.69,8.86,10.26v11Z" transform="translate(-0.28 -0.04)"/><path class="cls-1" d="M261.2,25.26,265,28.14l-2.34,3a8.87,8.87,0,0,1,2.21,6.19c0,2.58-1,6.23-4.41,7.8A7,7,0,0,1,264.8,52c0,5.77-4.41,9.33-10.47,9.33s-10.6-3.69-10.6-9.33h5.13c0,2.71,2.5,4.49,5.47,4.49s5.3-1.61,5.3-4.49-2.71-4.2-5.3-4.2c-6.53,0-10.6-4-10.6-10.51a10.19,10.19,0,0,1,10.6-10.6,8.27,8.27,0,0,1,4.79,1.19Zm-12.34,12c0,3.64,2.46,5.81,5.47,5.81s5.43-2.21,5.43-5.81-2.46-5.9-5.43-5.9S248.86,33.65,248.86,37.3Z" transform="translate(-0.28 -0.04)"/><path class="cls-1" d="M281,32.93a7,7,0,0,0-5.17-1.86c-2.46,0-3.82.76-3.82,2.07s1.23,2.12,3.9,2.29c3.94.26,8.95,1.15,8.95,6.7,0,3.69-3,6.87-9,6.87-3.31,0-6.62-.55-9.67-3.73l2.55-3.69c1.48,1.65,4.87,2.88,7.2,2.93,1.95,0,3.78-1,3.78-2.51s-1.19-2-4.16-2.2c-3.94-.3-8.65-1.74-8.65-6.49s5-6.53,8.82-6.53c3.27,0,5.73.64,8.14,2.76Z" transform="translate(-0.28 -0.04)"/><polygon class="cls-2" points="0 0.24 29.64 61.02 35.56 39.33 16.49 0.24 0 0.24"/><polygon class="cls-2" points="86.45 1.88 80.42 11.47 67.28 42.83 46.51 0.24 40.28 21.29 59.66 61.02 76.15 61.02 100.54 2.79 86.45 1.88"/><path class="cls-3" d="M111.5,35A22.43,22.43,0,0,0,119.86,28q2.92-4.25,2.93-11a16,16,0,0,0-1.89-8.15,15.45,15.45,0,0,0-5.11-5.28A17.94,17.94,0,0,0,109,.89a53,53,0,0,0-8.69-.61H85.39L80.64,11.51l9.63,0h5.32c1.76,0,3.3,0,4.63.15a10.6,10.6,0,0,1,3.48.79,6,6,0,0,1,3,2.58,8.07,8.07,0,0,1,.88,3.91,10,10,0,0,1-.71,4.11,8,8,0,0,1-2.24,2.79,8.18,8.18,0,0,1-4,1.68,40.19,40.19,0,0,1-5.89.36H90.27l6.8,10.94,6,8.95H121Z" transform="translate(-0.28 -0.04)"/><line class="cls-4" x1="137.62" y1="0.24" x2="137.62" y2="61.02"/></svg>